<?xml version="1.0" encoding="UTF-8" standalone="no"?>
<svg
   xmlns:dc="http://purl.org/dc/elements/1.1/"
   xmlns:cc="http://creativecommons.org/ns#"
   xmlns:rdf="http://www.w3.org/1999/02/22-rdf-syntax-ns#"
   xmlns:svg="http://www.w3.org/2000/svg"
   xmlns="http://www.w3.org/2000/svg"
   xmlns:sodipodi="http://sodipodi.sourceforge.net/DTD/sodipodi-0.dtd"
   xmlns:inkscape="http://www.inkscape.org/namespaces/inkscape"
   width="16"
   height="16"
   viewBox="0 0 16 16"
   version="1.1"
   id="svg10"
   sodipodi:docname="NukeLogo_dark.svg"
   inkscape:version="0.92.2 (5c3e80d, 2017-08-06)">
  <metadata
     id="metadata16">
    <rdf:RDF>
      <cc:Work
         rdf:about="">
        <dc:format>image/svg+xml</dc:format>
        <dc:type
           rdf:resource="http://purl.org/dc/dcmitype/StillImage" />
      </cc:Work>
    </rdf:RDF>
  </metadata>
  <defs
     id="defs14" />
  <sodipodi:namedview
     pagecolor="#ffffff"
     bordercolor="#666666"
     borderopacity="1"
     objecttolerance="10"
     gridtolerance="10"
     guidetolerance="10"
     inkscape:pageopacity="0"
     inkscape:pageshadow="2"
     inkscape:window-width="900"
     inkscape:window-height="1037"
     id="namedview12"
     showgrid="false"
     inkscape:zoom="5.2149125"
     inkscape:cx="-9.3757119"
     inkscape:cy="-46.381549"
     inkscape:window-x="-9"
     inkscape:window-y="0"
     inkscape:window-maximized="0"
     inkscape:current-layer="svg10" />
  <title
     id="title2">Unity_d</title>
  <g
     id="g31"
     style="clip-rule:evenodd;fill:#e6e6e6;fill-rule:evenodd;image-rendering:optimizeQuality;shape-rendering:geometricPrecision;text-rendering:geometricPrecision"
     transform="matrix(0.00274329,0,0,0.00274329,-13.626817,-9.4751251)">
    <path
       style="fill:#e6e6e6"
       inkscape:connector-curvature="0"
       id="path27"
       d="m 9153,5387 c -203,0 -315,56 -399,160 l 43,-160 H 7326 l -283,1057 900,1917 h 57 l 653,-2434 c 34,-129 121,-178 280,-178 h 172 c 159,0 182,31 139,190 l -649,2422 h 1471 l 667,-2489 c 87,-325 -29,-485 -354,-485 z"
       class="fil2" />
    <path
       style="fill:#F7B432;fill-rule:nonzero"
       inkscape:connector-curvature="0"
       id="path29"
       d="m 7039,7410 170,86 c 209,450 324,695 531,1145 l 633,310 -27,67 h -948 l -118,-37 c 0,0 -1142,100 -1623,-362 -215,-206 -263,-500 -155,-740 l 1,-3 c 51,-111 134,-210 251,-284 l 74,-104 -245,-755 c -62,-189 -112,-332 23,-312 l -68,-434 -41,1 -146,-911 -68,-37 c -41,-546 21,-325 -228,-813 l 179,-432 328,-113 4,74 c 616,114 1232,228 1848,342 l 25,-67 c 306,60 2596,477 2683,553 76,66 235,306 427,621 -98,-70 -233,-108 -400,-108 -1036,0 -2069,0 -3105,0 l -846,-119 33,367 724,1693 c 220,86 -35,245 84,372 z m -1463,-3507 2,37 511,531 h 2038 l -790,-166 26,-71 C 6767,4124 6172,4013 5576,3903 Z m 849,2795 -520,-52 190,596 554,-154 z m -685,-249 c 245,52 290,33 561,33 l -747,-1295 156,793 -44,2 z"
       class="fil3" />
  </g>
</svg>
